<svg width="80" height="80" viewBox="0 0 80 80" fill="none" xmlns="http://www.w3.org/2000/svg">
<rect x="1" y="1" width="78" height="78" rx="39" fill="white" fill-opacity="0.5"/>
<path d="M56.293 30.5946C56.305 30.6393 56.3111 30.6855 56.3113 30.7318V37.9377C56.3113 38.0302 56.2871 38.121 56.2411 38.201C56.1952 38.2811 56.1292 38.3474 56.0497 38.3934L50.0571 41.8755V48.7773C50.0571 48.9651 49.9582 49.1385 49.7968 49.2331L37.2879 56.5007C37.2592 56.5171 37.228 56.5276 37.1968 56.5388C37.1851 56.5427 37.174 56.5499 37.1616 56.5532C37.0742 56.5765 36.9823 56.5765 36.8948 56.5532C36.8805 56.5493 36.8675 56.5414 36.8538 56.5361C36.8252 56.5256 36.7953 56.5164 36.7679 56.5007L24.2616 49.2331C24.1821 49.187 24.1161 49.1206 24.0702 49.0406C24.0243 48.9606 24.0001 48.8698 24 48.7773V27.1598C24 27.1125 24.0065 27.0665 24.0182 27.0218C24.0221 27.0067 24.0312 26.9929 24.0364 26.9778C24.0462 26.9503 24.0553 26.922 24.0696 26.8964C24.0794 26.8793 24.0937 26.8655 24.1054 26.8498C24.1204 26.8288 24.134 26.8071 24.1516 26.7887C24.1666 26.7736 24.1861 26.7624 24.203 26.7493C24.2219 26.7335 24.2388 26.7165 24.2603 26.704H24.2609L30.5144 23.0702C30.5936 23.0242 30.6834 23 30.7747 23C30.8661 23 30.9558 23.0242 31.035 23.0702L37.2885 26.704H37.2898C37.3106 26.7171 37.3282 26.7335 37.3471 26.7486C37.364 26.7618 37.3829 26.7736 37.3978 26.788C37.4161 26.8071 37.4291 26.8288 37.4447 26.8498C37.4558 26.8655 37.4707 26.8793 37.4798 26.8964C37.4948 26.9227 37.5033 26.9503 37.5137 26.9778C37.5189 26.9929 37.528 27.0067 37.5319 27.0225C37.5439 27.0673 37.55 27.1134 37.5501 27.1598V40.6619L42.7611 37.6336V30.7312C42.7611 30.6852 42.7677 30.6386 42.7794 30.5946C42.7839 30.5788 42.7924 30.565 42.7976 30.5499C42.808 30.5223 42.8171 30.4941 42.8314 30.4685C42.8412 30.4514 42.8555 30.4376 42.8666 30.4218C42.8822 30.4008 42.8952 30.3791 42.9134 30.3608C42.9284 30.3457 42.9473 30.3345 42.9642 30.3214C42.9837 30.3056 43.0006 30.2885 43.0214 30.276H43.0221L49.2762 26.6422C49.3554 26.5962 49.4452 26.572 49.5365 26.572C49.6279 26.572 49.7177 26.5962 49.7968 26.6422L56.0503 30.276C56.0724 30.2892 56.0894 30.3056 56.1089 30.3207C56.1251 30.3338 56.144 30.3457 56.159 30.3601C56.1772 30.3791 56.1902 30.4008 56.2058 30.4218C56.2176 30.4376 56.2319 30.4514 56.241 30.4685C56.2559 30.4941 56.2644 30.5223 56.2748 30.5499C56.2807 30.565 56.2891 30.5788 56.293 30.5946ZM55.2688 37.6336V31.6414L53.0804 32.9129L50.0571 34.6697V40.6619L55.2694 37.6336H55.2688ZM49.0153 48.4732V42.4771L46.0415 44.1912L37.5495 49.0827V55.1353L49.0153 48.4732ZM25.0425 28.0694V48.4732L36.507 55.1346V49.0834L30.5177 45.6623L30.5157 45.661L30.5131 45.6597C30.493 45.6479 30.476 45.6308 30.4572 45.6164C30.4409 45.6032 30.422 45.5927 30.4077 45.5783L30.4064 45.5763C30.3895 45.5599 30.3778 45.5395 30.3635 45.5211C30.3505 45.5034 30.3348 45.4883 30.3244 45.4699L30.3238 45.4679C30.3121 45.4482 30.3049 45.4246 30.2964 45.4023C30.288 45.3826 30.2769 45.3642 30.2717 45.3432V45.3425C30.2652 45.3176 30.2639 45.2913 30.2613 45.2657C30.2587 45.246 30.2535 45.2263 30.2535 45.2066V31.0976L27.2309 29.3402L25.0425 28.07V28.0694ZM30.7754 24.1328L25.565 27.1598L30.7741 30.1867L35.9838 27.1591L30.7741 24.1328H30.7754ZM33.485 43.0235L36.5076 41.2674V28.0694L34.3192 29.3408L31.296 31.0976V44.2957L33.485 43.0235ZM49.5365 27.7049L44.3268 30.7318L49.5365 33.7588L54.7456 30.7312L49.5365 27.7049ZM49.0153 34.6697L45.992 32.9129L43.8036 31.6414V37.6336L46.8262 39.3897L49.0153 40.6619V34.6697ZM37.0276 48.1731L44.6691 43.7703L48.4889 41.5701L43.283 38.5452L37.2892 42.0279L31.8263 45.202L37.0276 48.1731Z" fill="#FF2D20"/>
<rect x="1" y="1" width="78" height="78" rx="39" stroke="white" stroke-width="2"/>
</svg>
