<svg width="20" height="20" viewBox="0 0 20 20" fill="none" xmlns="http://www.w3.org/2000/svg">
<path d="M14.4083 7.75835C14.3312 7.6811 14.2397 7.61981 14.1389 7.57799C14.038 7.53617 13.93 7.51465 13.8208 7.51465C13.7117 7.51465 13.6036 7.53617 13.5028 7.57799C13.402 7.61981 13.3104 7.6811 13.2333 7.75835L10 10.9917L6.76667 7.75835C6.61085 7.60254 6.39952 7.515 6.17917 7.515C5.95881 7.515 5.74748 7.60254 5.59167 7.75835C5.43585 7.91417 5.34832 8.1255 5.34832 8.34585C5.34832 8.56621 5.43585 8.77754 5.59167 8.93335L9.41667 12.7584C9.49376 12.8356 9.58534 12.8969 9.68615 12.9387C9.78696 12.9805 9.89503 13.0021 10.0042 13.0021C10.1133 13.0021 10.2214 12.9805 10.3222 12.9387C10.423 12.8969 10.5146 12.8356 10.5917 12.7584L14.4167 8.93335C14.7333 8.61669 14.7333 8.08335 14.4083 7.75835Z" fill="#CDDEE0"/>
</svg>
