<svg width="80" height="80" viewBox="0 0 80 80" fill="none" xmlns="http://www.w3.org/2000/svg">
<rect x="1" y="1" width="78" height="78" rx="39" fill="white" fill-opacity="0.5"/>
<path d="M29.0005 28.6241C29.0005 27.1326 29.593 25.7022 30.6476 24.6476C31.7022 23.593 33.1326 23.0005 34.6241 23.0005H40.2477V34.2477H34.6241C33.1326 34.2477 31.7022 33.6552 30.6476 32.6006C29.593 31.5459 29.0005 30.1156 29.0005 28.6241Z" fill="url(#paint0_linear_1443_7129)"/>
<path d="M40.2476 23H45.8712C46.6097 23 47.3409 23.1455 48.0232 23.4281C48.7055 23.7107 49.3254 24.1249 49.8476 24.6471C50.3698 25.1693 50.7841 25.7893 51.0667 26.4715C51.3493 27.1538 51.4948 27.8851 51.4948 28.6236C51.4948 29.3621 51.3493 30.0934 51.0667 30.7757C50.7841 31.4579 50.3698 32.0779 49.8476 32.6001C49.3254 33.1223 48.7055 33.5365 48.0232 33.8191C47.3409 34.1017 46.6097 34.2472 45.8712 34.2472H40.2476V23Z" fill="url(#paint1_linear_1443_7129)"/>
<path d="M40.2476 39.8707C40.2476 39.1322 40.393 38.4009 40.6756 37.7186C40.9582 37.0363 41.3725 36.4164 41.8947 35.8942C42.4169 35.372 43.0368 34.9578 43.7191 34.6751C44.4014 34.3925 45.1327 34.2471 45.8712 34.2471C46.6097 34.2471 47.3409 34.3925 48.0232 34.6751C48.7055 34.9578 49.3254 35.372 49.8476 35.8942C50.3698 36.4164 50.7841 37.0363 51.0667 37.7186C51.3493 38.4009 51.4948 39.1322 51.4948 39.8707C51.4948 40.6092 51.3493 41.3404 51.0667 42.0227C50.7841 42.705 50.3698 43.325 49.8476 43.8472C49.3254 44.3694 48.7055 44.7836 48.0232 45.0662C47.3409 45.3488 46.6097 45.4943 45.8712 45.4943C45.1327 45.4943 44.4014 45.3488 43.7191 45.0662C43.0368 44.7836 42.4169 44.3694 41.8947 43.8472C41.3725 43.325 40.9582 42.705 40.6756 42.0227C40.393 41.3404 40.2476 40.6092 40.2476 39.8707Z" fill="url(#paint2_linear_1443_7129)"/>
<path d="M29 51.1182C29 49.6268 29.5925 48.1964 30.6471 47.1417C31.7017 46.0871 33.1321 45.4946 34.6236 45.4946H40.2472V51.1182C40.2472 52.6097 39.6547 54.0401 38.6001 55.0947C37.5455 56.1493 36.1151 56.7418 34.6236 56.7418C33.1321 56.7418 31.7017 56.1493 30.6471 55.0947C29.5925 54.0401 29 52.6097 29 51.1182Z" fill="url(#paint3_linear_1443_7129)"/>
<path d="M29 39.8707C29 38.3792 29.5925 36.9488 30.6471 35.8942C31.7017 34.8396 33.1321 34.2471 34.6236 34.2471H40.2472V45.4943H34.6236C33.1321 45.4943 31.7017 44.9018 30.6471 43.8472C29.5925 42.7925 29 41.3621 29 39.8707Z" fill="url(#paint4_linear_1443_7129)"/>
<rect x="1" y="1" width="78" height="78" rx="39" stroke="white" stroke-width="2"/>
<defs>
<linearGradient id="paint0_linear_1443_7129" x1="37.8376" y1="23.8039" x2="25.787" y2="29.4275" gradientUnits="userSpaceOnUse">
<stop stop-color="#F24E1E"/>
<stop offset="1" stop-color="#DF4012" stop-opacity="0.9"/>
</linearGradient>
<linearGradient id="paint1_linear_1443_7129" x1="38.6408" y1="26.2135" x2="63.5453" y2="31.0337" gradientUnits="userSpaceOnUse">
<stop stop-color="#FF7262"/>
<stop offset="1" stop-color="#CC3C2B" stop-opacity="0.9"/>
</linearGradient>
<linearGradient id="paint2_linear_1443_7129" x1="43.461" y1="38.2639" x2="57.1184" y2="43.8875" gradientUnits="userSpaceOnUse">
<stop stop-color="#1ABCFE"/>
<stop offset="1" stop-color="#169ACF" stop-opacity="0.9"/>
</linearGradient>
<linearGradient id="paint3_linear_1443_7129" x1="35.427" y1="47.1014" x2="20.9663" y2="56.7418" gradientUnits="userSpaceOnUse">
<stop stop-color="#0ACF83"/>
<stop offset="1" stop-color="#069961" stop-opacity="0.9"/>
</linearGradient>
<linearGradient id="paint4_linear_1443_7129" x1="37.0337" y1="35.8538" x2="16.1461" y2="43.8875" gradientUnits="userSpaceOnUse">
<stop stop-color="#A259FF"/>
<stop offset="1" stop-color="#752FCD" stop-opacity="0.9"/>
</linearGradient>
</defs>
</svg>
