<svg width="20" height="20" viewBox="0 0 20 20" fill="none" xmlns="http://www.w3.org/2000/svg">
<path fill-rule="evenodd" clip-rule="evenodd" d="M7.85734 7.474H10.9523V9.01567C11.3982 8.129 12.5415 7.33234 14.259 7.33234C17.5515 7.33234 18.3332 9.09734 18.3332 12.3357V18.3332H14.9998V13.0732C14.9998 11.229 14.554 10.189 13.419 10.189C11.8448 10.189 11.1907 11.3098 11.1907 13.0723V18.3332H7.85734V7.474ZM2.1415 18.1915H5.47484V7.33234H2.1415V18.1915ZM5.95234 3.7915C5.95246 4.0709 5.89705 4.34753 5.78933 4.60533C5.6816 4.86312 5.52371 5.09693 5.32484 5.29317C4.92184 5.69369 4.37635 5.91788 3.80817 5.9165C3.241 5.91612 2.69676 5.6925 2.29317 5.294C2.09501 5.0971 1.93766 4.86302 1.83012 4.6052C1.72259 4.34737 1.66699 4.07086 1.6665 3.7915C1.6665 3.22734 1.8915 2.68734 2.294 2.289C2.69724 1.88997 3.2417 1.66625 3.809 1.6665C4.37734 1.6665 4.92234 1.89067 5.32484 2.289C5.7265 2.68734 5.95234 3.22734 5.95234 3.7915Z" fill="#5D7376"/>
</svg>
