<svg width="32" height="32" viewBox="0 0 32 32" fill="none" xmlns="http://www.w3.org/2000/svg">
<path opacity="0.5" d="M7.90444 24.8574C7.374 24.8574 6.8653 24.6467 6.49022 24.2716C6.11515 23.8966 5.90444 23.3879 5.90444 22.8574V17.9734C5.90444 17.443 6.11515 16.9343 6.49022 16.5592C6.8653 16.1841 7.374 15.9734 7.90444 15.9734H10.6804C10.6804 15.2714 10.6384 14.5674 10.5564 13.8654C10.4324 13.1214 10.2244 12.4594 9.93644 11.8814C9.64644 11.3014 9.27444 10.8474 8.81844 10.5154C8.36444 10.1434 7.78644 9.95742 7.08244 9.95742V6.85742C8.24044 6.85742 9.25244 7.10542 10.1224 7.60142C10.9849 8.09239 11.7264 8.77033 12.2924 9.58542C12.8606 10.4841 13.2794 11.4688 13.5324 12.5014C13.7875 13.6409 13.9123 14.8057 13.9044 15.9734V22.8574C13.9044 23.3879 13.6937 23.8966 13.3187 24.2716C12.9436 24.6467 12.4349 24.8574 11.9044 24.8574H7.90444ZM19.9044 24.8574C19.374 24.8574 18.8653 24.6467 18.4902 24.2716C18.1152 23.8966 17.9044 23.3879 17.9044 22.8574V17.9734C17.9044 17.443 18.1152 16.9343 18.4902 16.5592C18.8653 16.1841 19.374 15.9734 19.9044 15.9734H22.6804C22.6804 15.2714 22.6384 14.5674 22.5564 13.8654C22.4324 13.1214 22.2244 12.4594 21.9364 11.8814C21.6464 11.3014 21.2744 10.8474 20.8184 10.5154C20.3644 10.1434 19.7864 9.95742 19.0824 9.95742V6.85742C20.2404 6.85742 21.2524 7.10542 22.1224 7.60142C22.9849 8.09239 23.7264 8.77033 24.2924 9.58542C24.8606 10.4841 25.2793 11.4688 25.5324 12.5014C25.7875 13.6409 25.9123 14.8057 25.9044 15.9734V22.8574C25.9044 23.3879 25.6937 23.8966 25.3187 24.2716C24.9436 24.6467 24.4349 24.8574 23.9044 24.8574H19.9044Z" fill="#A2A2A2"/>
</svg>
