<svg width="32" height="32" viewBox="0 0 32 32" fill="none" xmlns="http://www.w3.org/2000/svg">
<path opacity="0.5" d="M24.0956 24.8574C24.626 24.8574 25.1347 24.6467 25.5098 24.2716C25.8848 23.8966 26.0956 23.3879 26.0956 22.8574V17.9734C26.0956 17.443 25.8848 16.9343 25.5098 16.5592C25.1347 16.1841 24.626 15.9734 24.0956 15.9734H21.3196C21.3196 15.2714 21.3616 14.5674 21.4436 13.8654C21.5676 13.1214 21.7756 12.4594 22.0636 11.8814C22.3536 11.3014 22.7256 10.8474 23.1816 10.5154C23.6356 10.1434 24.2136 9.95742 24.9176 9.95742V6.85742C23.7596 6.85742 22.7476 7.10542 21.8776 7.60142C21.0151 8.09239 20.2736 8.77033 19.7076 9.58542C19.1394 10.4841 18.7206 11.4688 18.4676 12.5014C18.2125 13.6409 18.0877 14.8057 18.0956 15.9734V22.8574C18.0956 23.3879 18.3063 23.8966 18.6813 24.2716C19.0564 24.6467 19.5651 24.8574 20.0956 24.8574H24.0956ZM12.0956 24.8574C12.626 24.8574 13.1347 24.6467 13.5098 24.2716C13.8848 23.8966 14.0956 23.3879 14.0956 22.8574V17.9734C14.0956 17.443 13.8848 16.9343 13.5098 16.5592C13.1347 16.1841 12.626 15.9734 12.0956 15.9734H9.31956C9.31956 15.2714 9.36156 14.5674 9.44356 13.8654C9.56756 13.1214 9.77556 12.4594 10.0636 11.8814C10.3536 11.3014 10.7256 10.8474 11.1816 10.5154C11.6356 10.1434 12.2136 9.95742 12.9176 9.95742V6.85742C11.7596 6.85742 10.7476 7.10542 9.87756 7.60142C9.01513 8.09239 8.27365 8.77033 7.70756 9.58542C7.13941 10.4841 6.72065 11.4688 6.46756 12.5014C6.21253 13.6409 6.08773 14.8057 6.09556 15.9734V22.8574C6.09556 23.3879 6.30627 23.8966 6.68135 24.2716C7.05642 24.6467 7.56513 24.8574 8.09556 24.8574H12.0956Z" fill="#A2A2A2"/>
</svg>
