<svg width="132" height="36" viewBox="0 0 132 36" fill="none" xmlns="http://www.w3.org/2000/svg">
<path d="M49.4591 12.8669H51.3224L54.0659 20.7087L56.8095 12.8669H58.6727L54.8142 23.5476H53.3177L49.4591 12.8669ZM48.4541 12.8669H50.3101L50.6475 20.5106V23.5476H48.4541V12.8669ZM57.8218 12.8669H59.685V23.5476H57.4843V20.5106L57.8218 12.8669ZM65.7663 21.7577V18.2219C65.7663 17.9676 65.7248 17.75 65.6416 17.569C65.5585 17.3832 65.4289 17.2389 65.2528 17.1362C65.0817 17.0335 64.8591 16.9822 64.5853 16.9822C64.3505 16.9822 64.1476 17.0237 63.9764 17.1069C63.8053 17.1851 63.6732 17.3001 63.5803 17.4517C63.4874 17.5984 63.4409 17.772 63.4409 17.9725H61.3282C61.3282 17.6351 61.4065 17.3147 61.563 17.0115C61.7195 16.7083 61.9469 16.4418 62.2452 16.2119C62.5435 15.9772 62.8981 15.7938 63.3089 15.6618C63.7246 15.5297 64.1892 15.4637 64.7026 15.4637C65.3188 15.4637 65.8666 15.5664 66.3458 15.7718C66.8251 15.9772 67.2017 16.2853 67.4755 16.6961C67.7543 17.1069 67.8937 17.6204 67.8937 18.2366V21.633C67.8937 22.0682 67.9206 22.4252 67.9744 22.704C68.0282 22.9779 68.1064 23.2175 68.2091 23.4229V23.5476H66.0744C65.9717 23.3324 65.8935 23.0635 65.8397 22.7407C65.7908 22.413 65.7663 22.0854 65.7663 21.7577ZM66.0451 18.7134L66.0597 19.9091H64.8787C64.5999 19.9091 64.3579 19.9409 64.1525 20.0045C63.9471 20.0681 63.7784 20.1585 63.6463 20.2759C63.5143 20.3884 63.4165 20.5204 63.3529 20.672C63.2942 20.8236 63.2649 20.9899 63.2649 21.1708C63.2649 21.3518 63.3064 21.5156 63.3896 21.6623C63.4727 21.8042 63.5925 21.9166 63.749 21.9998C63.9055 22.078 64.0889 22.1172 64.2992 22.1172C64.6171 22.1172 64.8934 22.0536 65.1281 21.9264C65.3629 21.7993 65.5438 21.6428 65.671 21.4569C65.803 21.2711 65.8715 21.095 65.8764 20.9288L66.4339 21.8237C66.3556 22.0242 66.248 22.2321 66.1111 22.4473C65.9791 22.6624 65.8103 22.8654 65.6049 23.0561C65.3995 23.242 65.1526 23.396 64.864 23.5183C64.5755 23.6356 64.2332 23.6943 63.837 23.6943C63.3333 23.6943 62.8761 23.5941 62.4653 23.3936C62.0594 23.1882 61.7366 22.907 61.497 22.55C61.2622 22.1881 61.1448 21.7773 61.1448 21.3176C61.1448 20.9019 61.2231 20.5326 61.3796 20.2099C61.5361 19.8871 61.7659 19.6157 62.0691 19.3956C62.3772 19.1707 62.7611 19.0019 63.2208 18.8895C63.6805 18.7721 64.2136 18.7134 64.82 18.7134H66.0451ZM71.5908 17.3049V23.5476H69.4782V15.6104H71.4588L71.5908 17.3049ZM71.2827 19.3003H70.7106C70.7106 18.7134 70.7864 18.1852 70.938 17.7157C71.0896 17.2414 71.3023 16.8379 71.5762 16.5054C71.85 16.1679 72.1753 15.9112 72.5518 15.7351C72.9333 15.5542 73.3587 15.4637 73.8282 15.4637C74.1999 15.4637 74.5398 15.5175 74.8479 15.6251C75.156 15.7327 75.4201 15.9038 75.6401 16.1386C75.8651 16.3733 76.0363 16.6839 76.1536 17.0702C76.2759 17.4566 76.337 17.9285 76.337 18.486V23.5476H74.2097V18.4787C74.2097 18.1265 74.1608 17.8527 74.063 17.6571C73.9652 17.4614 73.8209 17.3245 73.6302 17.2463C73.4443 17.1631 73.2145 17.1216 72.9406 17.1216C72.657 17.1216 72.41 17.1778 72.1997 17.2903C71.9943 17.4028 71.8231 17.5593 71.6862 17.7598C71.5542 17.9554 71.4539 18.1852 71.3854 18.4493C71.317 18.7134 71.2827 18.997 71.2827 19.3003ZM82.9685 15.6104H84.8831V23.2835C84.8831 24.0073 84.7217 24.6211 84.3989 25.1248C84.0811 25.6334 83.636 26.0173 83.0638 26.2765C82.4917 26.5406 81.8266 26.6726 81.0685 26.6726C80.736 26.6726 80.3839 26.6286 80.0122 26.5406C79.6454 26.4525 79.2933 26.3156 78.9559 26.1298C78.6233 25.9439 78.3446 25.7092 78.1196 25.4255L79.0512 24.1785C79.2958 24.4621 79.5794 24.6822 79.9022 24.8387C80.2249 25.0001 80.5819 25.0808 80.9732 25.0808C81.3546 25.0808 81.6774 25.0099 81.9415 24.868C82.2056 24.7311 82.4085 24.5281 82.5503 24.2592C82.6922 23.9951 82.7631 23.6748 82.7631 23.2982V17.4443L82.9685 15.6104ZM77.6281 19.6744V19.5203C77.6281 18.9139 77.7015 18.3637 77.8482 17.8698C77.9998 17.371 78.2125 16.9431 78.4864 16.5861C78.7651 16.229 79.1026 15.9527 79.4987 15.7571C79.8948 15.5615 80.3423 15.4637 80.8411 15.4637C81.3693 15.4637 81.8119 15.5615 82.1689 15.7571C82.5259 15.9527 82.8193 16.2315 83.0492 16.5934C83.279 16.9504 83.4575 17.3734 83.5847 17.8625C83.7167 18.3466 83.8194 18.8772 83.8928 19.4543V19.7917C83.8194 20.3444 83.7094 20.8579 83.5627 21.3322C83.416 21.8066 83.2228 22.2223 82.9832 22.5793C82.7435 22.9314 82.4452 23.2053 82.0882 23.4009C81.7361 23.5965 81.3155 23.6943 80.8265 23.6943C80.3374 23.6943 79.8948 23.5941 79.4987 23.3936C79.1075 23.193 78.7725 22.9118 78.4937 22.55C78.215 22.1881 77.9998 21.7626 77.8482 21.2735C77.7015 20.7845 77.6281 20.2514 77.6281 19.6744ZM79.7408 19.5203V19.6744C79.7408 20.002 79.7726 20.3077 79.8361 20.5913C79.8997 20.875 79.9975 21.1268 80.1296 21.3469C80.2665 21.5621 80.4352 21.7308 80.6357 21.8531C80.8411 21.9704 81.0832 22.0291 81.362 22.0291C81.7483 22.0291 82.0637 21.9484 82.3083 21.787C82.5528 21.6208 82.7362 21.3934 82.8584 21.1048C82.9807 20.8163 83.0516 20.4837 83.0712 20.1072V19.1462C83.0614 18.8381 83.0198 18.5618 82.9465 18.3173C82.8731 18.0679 82.7704 17.8551 82.6384 17.6791C82.5063 17.503 82.3352 17.3661 82.1249 17.2683C81.9146 17.1705 81.6652 17.1216 81.3766 17.1216C81.0979 17.1216 80.8558 17.1851 80.6504 17.3123C80.4499 17.4345 80.2812 17.6033 80.1442 17.8184C80.0122 18.0336 79.912 18.2879 79.8435 18.5814C79.775 18.8699 79.7408 19.1829 79.7408 19.5203ZM89.8053 22.0438C90.0645 22.0438 90.2944 21.9949 90.4949 21.8971C90.6954 21.7944 90.8519 21.6526 90.9644 21.4716C91.0817 21.2858 91.1429 21.0681 91.1478 20.8187H93.1357C93.1308 21.3762 92.9817 21.8726 92.6883 22.3079C92.3948 22.7382 92.0011 23.0781 91.5072 23.3275C91.0133 23.5721 90.4607 23.6943 89.8493 23.6943C89.2331 23.6943 88.6952 23.5916 88.2355 23.3862C87.7807 23.1808 87.4017 22.8972 87.0985 22.5353C86.7953 22.1685 86.5679 21.743 86.4162 21.2589C86.2646 20.7698 86.1888 20.2466 86.1888 19.689V19.4763C86.1888 18.9139 86.2646 18.3906 86.4162 17.9065C86.5679 17.4174 86.7953 16.992 87.0985 16.6301C87.4017 16.2633 87.7807 15.9772 88.2355 15.7718C88.6903 15.5664 89.2234 15.4637 89.8347 15.4637C90.4851 15.4637 91.0548 15.5884 91.5439 15.8378C92.0378 16.0872 92.4242 16.4442 92.7029 16.9088C92.9866 17.3685 93.1308 17.9138 93.1357 18.5447H91.1478C91.1429 18.2806 91.0866 18.041 90.979 17.8258C90.8763 17.6106 90.7247 17.4394 90.5242 17.3123C90.3286 17.1802 90.0865 17.1142 89.798 17.1142C89.4899 17.1142 89.238 17.1802 89.0424 17.3123C88.8468 17.4394 88.6952 17.6155 88.5876 17.8405C88.48 18.0605 88.4042 18.3124 88.3602 18.596C88.3211 18.8748 88.3015 19.1682 88.3015 19.4763V19.689C88.3015 19.9971 88.3211 20.293 88.3602 20.5767C88.3993 20.8603 88.4727 21.1122 88.5803 21.3322C88.6928 21.5523 88.8468 21.7259 89.0424 21.8531C89.238 21.9802 89.4923 22.0438 89.8053 22.0438ZM94.0233 19.6597V19.5057C94.0233 18.9237 94.1065 18.3882 94.2728 17.8991C94.439 17.4052 94.6811 16.9773 94.999 16.6154C95.3169 16.2535 95.7081 15.9723 96.1727 15.7718C96.6373 15.5664 97.1704 15.4637 97.7719 15.4637C98.3734 15.4637 98.9089 15.5664 99.3784 15.7718C99.8479 15.9723 100.242 16.2535 100.559 16.6154C100.882 16.9773 101.127 17.4052 101.293 17.8991C101.459 18.3882 101.542 18.9237 101.542 19.5057V19.6597C101.542 20.2368 101.459 20.7723 101.293 21.2662C101.127 21.7553 100.882 22.1832 100.559 22.55C100.242 22.9118 99.8503 23.193 99.3857 23.3936C98.9211 23.5941 98.3881 23.6943 97.7865 23.6943C97.185 23.6943 96.6495 23.5941 96.18 23.3936C95.7154 23.193 95.3218 22.9118 94.999 22.55C94.6811 22.1832 94.439 21.7553 94.2728 21.2662C94.1065 20.7723 94.0233 20.2368 94.0233 19.6597ZM96.136 19.5057V19.6597C96.136 19.9922 96.1654 20.3028 96.224 20.5913C96.2827 20.8799 96.3757 21.1342 96.5028 21.3542C96.6348 21.5694 96.806 21.7381 97.0163 21.8604C97.2266 21.9827 97.4833 22.0438 97.7865 22.0438C98.08 22.0438 98.3318 21.9827 98.5421 21.8604C98.7524 21.7381 98.9211 21.5694 99.0483 21.3542C99.1754 21.1342 99.2684 20.8799 99.327 20.5913C99.3906 20.3028 99.4224 19.9922 99.4224 19.6597V19.5057C99.4224 19.1829 99.3906 18.8797 99.327 18.596C99.2684 18.3075 99.173 18.0532 99.0409 17.8331C98.9138 17.6082 98.7451 17.4321 98.5348 17.3049C98.3245 17.1778 98.0702 17.1142 97.7719 17.1142C97.4736 17.1142 97.2193 17.1778 97.009 17.3049C96.8036 17.4321 96.6348 17.6082 96.5028 17.8331C96.3757 18.0532 96.2827 18.3075 96.224 18.596C96.1654 18.8797 96.136 19.1829 96.136 19.5057ZM107.528 21.8164V12.28H109.656V23.5476H107.741L107.528 21.8164ZM102.511 19.6744V19.5203C102.511 18.9139 102.579 18.3637 102.716 17.8698C102.853 17.371 103.054 16.9431 103.318 16.5861C103.582 16.229 103.907 15.9527 104.293 15.7571C104.68 15.5615 105.12 15.4637 105.614 15.4637C106.078 15.4637 106.484 15.5615 106.831 15.7571C107.184 15.9527 107.482 16.2315 107.726 16.5934C107.976 16.9504 108.176 17.3734 108.328 17.8625C108.48 18.3466 108.59 18.8772 108.658 19.4543V19.7917C108.59 20.3444 108.48 20.8579 108.328 21.3322C108.176 21.8066 107.976 22.2223 107.726 22.5793C107.482 22.9314 107.184 23.2053 106.831 23.4009C106.479 23.5965 106.069 23.6943 105.599 23.6943C105.105 23.6943 104.665 23.5941 104.279 23.3936C103.897 23.193 103.574 22.9118 103.31 22.55C103.051 22.1881 102.853 21.7626 102.716 21.2735C102.579 20.7845 102.511 20.2514 102.511 19.6744ZM104.623 19.5203V19.6744C104.623 20.002 104.648 20.3077 104.697 20.5913C104.751 20.875 104.836 21.1268 104.954 21.3469C105.076 21.5621 105.232 21.7308 105.423 21.8531C105.619 21.9704 105.856 22.0291 106.135 22.0291C106.496 22.0291 106.795 21.9484 107.03 21.787C107.264 21.6208 107.443 21.3934 107.565 21.1048C107.692 20.8163 107.766 20.4837 107.785 20.1072V19.1462C107.77 18.8381 107.726 18.5618 107.653 18.3173C107.585 18.0679 107.482 17.8551 107.345 17.6791C107.213 17.503 107.047 17.3661 106.846 17.2683C106.65 17.1705 106.418 17.1216 106.149 17.1216C105.875 17.1216 105.641 17.1851 105.445 17.3123C105.249 17.4345 105.09 17.6033 104.968 17.8184C104.851 18.0336 104.763 18.2879 104.704 18.5814C104.65 18.8699 104.623 19.1829 104.623 19.5203ZM113.536 15.6104V23.5476H111.416V15.6104H113.536ZM111.284 13.5417C111.284 13.2336 111.392 12.9793 111.607 12.7788C111.822 12.5783 112.111 12.4781 112.473 12.4781C112.83 12.4781 113.116 12.5783 113.331 12.7788C113.551 12.9793 113.661 13.2336 113.661 13.5417C113.661 13.8498 113.551 14.1041 113.331 14.3047C113.116 14.5052 112.83 14.6054 112.473 14.6054C112.111 14.6054 111.822 14.5052 111.607 14.3047C111.392 14.1041 111.284 13.8498 111.284 13.5417ZM117.351 17.3049V23.5476H115.238V15.6104H117.219L117.351 17.3049ZM117.043 19.3003H116.471C116.471 18.7134 116.546 18.1852 116.698 17.7157C116.85 17.2414 117.062 16.8379 117.336 16.5054C117.61 16.1679 117.935 15.9112 118.312 15.7351C118.693 15.5542 119.119 15.4637 119.588 15.4637C119.96 15.4637 120.3 15.5175 120.608 15.6251C120.916 15.7327 121.18 15.9038 121.4 16.1386C121.625 16.3733 121.796 16.6839 121.914 17.0702C122.036 17.4566 122.097 17.9285 122.097 18.486V23.5476H119.97V18.4787C119.97 18.1265 119.921 17.8527 119.823 17.6571C119.725 17.4614 119.581 17.3245 119.39 17.2463C119.204 17.1631 118.974 17.1216 118.701 17.1216C118.417 17.1216 118.17 17.1778 117.96 17.2903C117.754 17.4028 117.583 17.5593 117.446 17.7598C117.314 17.9554 117.214 18.1852 117.145 18.4493C117.077 18.7134 117.043 18.997 117.043 19.3003ZM128.728 15.6104H130.643V23.2835C130.643 24.0073 130.482 24.6211 130.159 25.1248C129.841 25.6334 129.396 26.0173 128.824 26.2765C128.252 26.5406 127.587 26.6726 126.828 26.6726C126.496 26.6726 126.144 26.6286 125.772 26.5406C125.405 26.4525 125.053 26.3156 124.716 26.1298C124.383 25.9439 124.105 25.7092 123.88 25.4255L124.811 24.1785C125.056 24.4621 125.339 24.6822 125.662 24.8387C125.985 25.0001 126.342 25.0808 126.733 25.0808C127.115 25.0808 127.437 25.0099 127.701 24.868C127.966 24.7311 128.168 24.5281 128.31 24.2592C128.452 23.9951 128.523 23.6748 128.523 23.2982V17.4443L128.728 15.6104ZM123.388 19.6744V19.5203C123.388 18.9139 123.461 18.3637 123.608 17.8698C123.76 17.371 123.972 16.9431 124.246 16.5861C124.525 16.229 124.863 15.9527 125.259 15.7571C125.655 15.5615 126.102 15.4637 126.601 15.4637C127.129 15.4637 127.572 15.5615 127.929 15.7571C128.286 15.9527 128.579 16.2315 128.809 16.5934C129.039 16.9504 129.217 17.3734 129.345 17.8625C129.477 18.3466 129.579 18.8772 129.653 19.4543V19.7917C129.579 20.3444 129.469 20.8579 129.323 21.3322C129.176 21.8066 128.983 22.2223 128.743 22.5793C128.503 22.9314 128.205 23.2053 127.848 23.4009C127.496 23.5965 127.075 23.6943 126.586 23.6943C126.097 23.6943 125.655 23.5941 125.259 23.3936C124.867 23.193 124.532 22.9118 124.254 22.55C123.975 22.1881 123.76 21.7626 123.608 21.2735C123.461 20.7845 123.388 20.2514 123.388 19.6744ZM125.501 19.5203V19.6744C125.501 20.002 125.533 20.3077 125.596 20.5913C125.66 20.875 125.757 21.1268 125.89 21.3469C126.026 21.5621 126.195 21.7308 126.396 21.8531C126.601 21.9704 126.843 22.0291 127.122 22.0291C127.508 22.0291 127.824 21.9484 128.068 21.787C128.313 21.6208 128.496 21.3934 128.618 21.1048C128.741 20.8163 128.812 20.4837 128.831 20.1072V19.1462C128.821 18.8381 128.78 18.5618 128.706 18.3173C128.633 18.0679 128.53 17.8551 128.398 17.6791C128.266 17.503 128.095 17.3661 127.885 17.2683C127.675 17.1705 127.425 17.1216 127.137 17.1216C126.858 17.1216 126.616 17.1851 126.41 17.3123C126.21 17.4345 126.041 17.6033 125.904 17.8184C125.772 18.0336 125.672 18.2879 125.603 18.5814C125.535 18.8699 125.501 19.1829 125.501 19.5203Z" fill="white"/>
<path d="M37.8323 0H0.231347C0.103669 0 0 0.102327 0 0.22856V35.7714C0 35.8977 0.103669 36 0.231347 36H37.8323C37.9599 36 38.063 35.8977 38.063 35.7714V0.22856C38.063 0.102327 37.9599 0 37.8323 0Z" fill="#0EC5D7"/>
<path d="M10.0606 7.92261V28.0775V7.92261Z" fill="white"/>
<path d="M10.0606 7.92261V28.0775" stroke="white" stroke-width="3.30707"/>
<path d="M16.2048 7.92285V17.9622V7.92285Z" fill="white"/>
<path d="M16.2048 7.92285V17.9622" stroke="white" stroke-width="3.30079"/>
<path d="M20.8848 7.9231V11.3331H26.749L31.003 19.9716H34.8333L28.75 7.9231H20.8848Z" fill="white"/>
<path d="M22.6285 15.0286V28.4774V15.0286Z" fill="white"/>
<path d="M22.6285 15.0286V28.4774" stroke="white" stroke-width="3.82041"/>
</svg>
