<svg width="33" height="32" viewBox="0 0 33 32" fill="none" xmlns="http://www.w3.org/2000/svg">
<rect x="0.5" width="32" height="32" rx="16" fill="#EDF5FE"/>
<path d="M14.6945 13.794L14.0226 15.8596C13.9916 15.954 13.9913 16.0556 14.0217 16.1501C14.0522 16.2446 14.1119 16.327 14.1921 16.3853C14.2724 16.4437 14.3692 16.4751 14.4684 16.475C14.5677 16.4749 14.6644 16.4432 14.7445 16.3846L16.5007 15.1065L18.257 16.3846C18.3371 16.4432 18.4338 16.4749 18.533 16.475C18.6323 16.4751 18.729 16.4437 18.8093 16.3853C18.8896 16.327 18.9493 16.2446 18.9797 16.1501C19.0102 16.0556 19.0099 15.954 18.9789 15.8596L18.307 13.794L20.0632 12.519C20.1441 12.4611 20.2045 12.379 20.2357 12.2845C20.2669 12.1901 20.2671 12.0881 20.2365 11.9935C20.2059 11.8988 20.146 11.8164 20.0654 11.758C19.9848 11.6997 19.8877 11.6685 19.7882 11.669H17.6007L16.932 9.60652C16.9019 9.51158 16.8424 9.4287 16.762 9.36986C16.6817 9.31102 16.5847 9.2793 16.4851 9.2793C16.3855 9.2793 16.2885 9.31102 16.2082 9.36986C16.1278 9.4287 16.0683 9.51158 16.0382 9.60652L15.3695 11.669H13.2132C13.1137 11.6685 13.0167 11.6997 12.9361 11.758C12.8555 11.8164 12.7956 11.8988 12.765 11.9935C12.7343 12.0881 12.7346 12.1901 12.7658 12.2845C12.7969 12.379 12.8573 12.4611 12.9382 12.519L14.6945 13.794ZM15.7257 12.6065C15.8232 12.6078 15.9186 12.5783 15.9983 12.5222C16.078 12.4661 16.1379 12.3862 16.1695 12.294L16.5007 11.2659L16.832 12.2846C16.8636 12.3769 16.9235 12.4567 17.0032 12.5128C17.0829 12.569 17.1783 12.5985 17.2757 12.5971H18.3476L17.482 13.2221C17.4017 13.2797 17.3418 13.3612 17.3109 13.455C17.28 13.5489 17.2797 13.65 17.3101 13.744L17.6414 14.7628L16.7757 14.1378C16.6961 14.0789 16.5997 14.0471 16.5007 14.0471C16.4017 14.0471 16.3053 14.0789 16.2257 14.1378L15.3601 14.7628L15.6914 13.744C15.7218 13.65 15.7215 13.5489 15.6906 13.455C15.6597 13.3612 15.5998 13.2797 15.5195 13.2221L14.6539 12.5971L15.7257 12.6065Z" fill="#83BCF9"/>
<path d="M25.6577 21.2343L22.2858 15.3374C22.6415 14.4012 22.7644 13.3926 22.6442 12.3983C22.5238 11.4041 22.1639 10.4539 21.5952 9.62947C21.0265 8.80508 20.2661 8.13113 19.3793 7.66558C18.4926 7.20002 17.5061 6.95679 16.5046 6.95679C15.503 6.95679 14.5165 7.20002 13.6297 7.66558C12.743 8.13113 11.9826 8.80508 11.4139 9.62947C10.8452 10.4539 10.4852 11.4041 10.3649 12.3983C10.2447 13.3926 10.3676 14.4012 10.7233 15.3374L7.34518 21.2343C7.3008 21.3079 7.27734 21.3922 7.27734 21.4781C7.27734 21.564 7.3008 21.6483 7.34518 21.7218C7.39143 21.7941 7.45677 21.8522 7.53397 21.8897C7.61118 21.9272 7.69725 21.9427 7.78267 21.9343L11.2202 21.6031L12.6764 24.7281C12.7127 24.806 12.7699 24.8724 12.8416 24.9198C12.9133 24.9673 12.9967 24.9939 13.0827 24.9968H13.1014C13.1841 24.9966 13.2652 24.9744 13.3365 24.9328C13.4078 24.891 13.4669 24.8312 13.5077 24.7593L16.5014 19.5687L19.4764 24.7718C19.5172 24.8437 19.5762 24.9035 19.6476 24.9453C19.7189 24.9869 19.8 25.0091 19.8827 25.0093H19.9014C19.9873 25.0064 20.0708 24.9798 20.1425 24.9323C20.2142 24.8849 20.2714 24.8185 20.3077 24.7406L21.7639 21.6156L25.2014 21.9468C25.2869 21.9548 25.373 21.9391 25.4502 21.9015C25.5273 21.8639 25.5927 21.8058 25.6392 21.7336C25.6856 21.6613 25.7113 21.5778 25.7134 21.4919C25.7156 21.4061 25.6942 21.3213 25.6514 21.2468L25.6577 21.2343ZM16.5014 7.92807C17.5386 7.92807 18.5526 8.23548 19.4151 8.81147C20.2777 9.38744 20.9502 10.2062 21.3477 11.1642C21.7452 12.1222 21.8498 13.1765 21.6484 14.194C21.4469 15.2114 20.9485 16.1463 20.2159 16.8806C19.4834 17.6149 18.5497 18.1156 17.5327 18.3195C16.5157 18.5233 15.4611 18.4212 14.5022 18.026C13.5432 17.6308 12.7229 16.9602 12.1449 16.099C11.5668 15.2378 11.257 14.2246 11.2546 13.1874C11.2537 12.4976 11.3888 11.8143 11.652 11.1767C11.9152 10.539 12.3015 9.95947 12.7887 9.4711C13.276 8.98271 13.8546 8.59508 14.4916 8.33033C15.1287 8.06557 15.8116 7.92889 16.5014 7.92807ZM13.1639 23.5187L11.9483 20.9062C11.9071 20.8188 11.84 20.7462 11.7562 20.6981C11.6724 20.65 11.5758 20.6288 11.4796 20.6374L8.60768 20.9124L11.2108 16.3593C11.6802 17.1382 12.3157 17.8039 13.0719 18.3089C13.8282 18.814 14.6865 19.146 15.5858 19.2812L13.1639 23.5187ZM21.5233 20.6374C21.4271 20.6288 21.3305 20.65 21.2467 20.6981C21.1628 20.7462 21.0958 20.8188 21.0546 20.9062L19.8389 23.5187L17.4171 19.2812C18.3163 19.146 19.1747 18.814 19.9309 18.3089C20.6872 17.8039 21.3227 17.1382 21.7921 16.3593L24.3952 20.9124L21.5233 20.6374Z" fill="#83BCF9"/>
</svg>
