<svg width="60" height="60" viewBox="0 0 60 60" fill="none" xmlns="http://www.w3.org/2000/svg">
<rect width="60" height="60" rx="30" fill="#F5F9ED"/>
<path d="M36.5 36V43.5C36.5 44.6046 35.6046 45.5 34.5 45.5H19C17.8954 45.5 17 44.6046 17 43.5V21.5C17 20.3954 17.8954 19.5 19 19.5H28.5M21.5 24.5H28M21.5 30H32M21.5 34H32M21.5 38.5H32M36.5 32V33.5" stroke="#96BF47" stroke-width="1.6" stroke-linecap="round" stroke-linejoin="round"/>
<path d="M44 22.5C44 27.1944 40.1944 31 35.5 31C30.8056 31 27 27.1944 27 22.5C27 17.8056 30.8056 14 35.5 14C40.1944 14 44 17.8056 44 22.5ZM28.695 22.5C28.695 26.2583 31.7417 29.305 35.5 29.305C39.2583 29.305 42.305 26.2583 42.305 22.5C42.305 18.7417 39.2583 15.695 35.5 15.695C31.7417 15.695 28.695 18.7417 28.695 22.5Z" fill="#96BF47"/>
<path d="M35 18V22.5L38 25.5" stroke="#96BF47" stroke-width="1.44062" stroke-linecap="round" stroke-linejoin="round"/>
</svg>
