<svg width="80" height="80" viewBox="0 0 80 80" fill="none" xmlns="http://www.w3.org/2000/svg">
<rect x="1" y="1" width="78" height="78" rx="39" fill="white" fill-opacity="0.5"/>
<path d="M27.638 36.1826L26.7849 41.1526H28.8322C30.3675 40.9869 31.7324 40.4899 31.9029 37.6735C31.9029 36.6796 31.05 36.1826 29.8558 36.1826H27.638Z" fill="#4F5B93"/>
<path d="M50.4985 36.1826L49.6454 41.1526H51.6929C53.2283 40.9869 54.5931 40.4899 54.7636 37.6735C54.7636 36.6796 53.9107 36.1826 52.7165 36.1826H50.4985Z" fill="#4F5B93"/>
<path fill-rule="evenodd" clip-rule="evenodd" d="M64.9997 39.6615C64.9997 46.6149 53.8481 52.2518 40.0919 52.2518C26.3357 52.2518 15.1841 46.6149 15.1841 39.6615C15.1841 32.7081 26.3357 27.0713 40.0919 27.0713C53.8481 27.0713 64.9997 32.7081 64.9997 39.6615ZM24.9085 33.6977L22.1787 47.1163H25.4202L26.1027 43.6374H29.1731C32.0735 43.8031 35.3149 41.4838 35.3149 37.508C35.3149 35.1885 33.95 33.8634 31.2204 33.6977H24.9085ZM37.4102 30.219L34.6807 43.6374H37.9222L39.4575 36.1826H42.0166C43.2106 36.1826 43.2106 36.6796 43.0402 37.508L41.846 43.6374H45.2579L46.4522 36.8453C46.7933 35.1885 45.7697 33.8634 43.04 33.6977H39.9693L40.6518 30.219H37.4102ZM47.769 33.6977L45.0394 47.1163H48.2807L48.9632 43.6374H52.034C54.9342 43.8031 58.1758 41.4838 58.1758 37.508C58.1758 35.1885 56.8109 33.8634 54.0812 33.6977H47.769Z" fill="#4F5B93"/>
<rect x="1" y="1" width="78" height="78" rx="39" stroke="white" stroke-width="2"/>
</svg>
