<svg width="80" height="80" viewBox="0 0 80 80" fill="none" xmlns="http://www.w3.org/2000/svg">
<rect x="1" y="1" width="78" height="78" rx="39" fill="white" fill-opacity="0.5"/>
<path d="M38.1261 20.3511C38.4292 20.3511 38.5807 20.5009 38.8839 20.6507C37.0652 21.4 35.2465 23.348 34.3371 27.5436L31.0028 28.4427C32.0637 25.4458 34.1856 20.3511 38.1261 20.3511ZM39.7932 21.8495C40.0963 22.7486 40.3994 23.7975 40.3994 25.4458C40.3994 25.5956 40.3994 25.5956 40.3994 25.7455L36.0043 26.9442C36.9136 23.7975 38.4292 22.4489 39.7932 21.8495ZM43.7337 24.5467L41.7635 25.1461C41.7635 24.9962 41.7635 24.8464 41.7635 24.6966C41.7635 23.3479 41.6119 22.299 41.3088 21.4C42.3697 21.6997 43.279 23.0483 43.7337 24.5467ZM53.585 26.9442C53.585 26.7944 53.4334 26.6445 53.2819 26.6445C52.9788 26.6445 49.7961 26.3448 49.7961 26.3448C49.7961 26.3448 47.5227 24.0972 47.2196 23.9473C46.9164 23.6476 46.4618 23.7975 46.3102 23.7975C46.3102 23.7975 45.8555 23.9473 45.0977 24.247C44.34 22.1492 42.9759 20.2012 40.7026 20.2012H40.551C39.9448 19.3021 39.0354 19.0025 38.2776 19.0025C32.8215 18.8526 30.245 25.5956 29.3357 29.042C28.1232 29.3417 26.9108 29.7913 25.5467 30.2408C24.3343 30.5405 24.3343 30.6903 24.1827 31.7392C24.0312 32.4885 21 56.1639 21 56.1639L45.0977 60.6593L58.1317 57.8122C58.1317 57.8122 53.585 27.2439 53.585 26.9442Z" fill="#96BF47"/>
<path d="M40.7006 33.8375L39.0335 38.6325C39.0335 38.6325 37.6695 37.8833 35.8508 37.8833C33.2743 37.8833 33.1227 39.3817 33.1227 39.8312C33.1227 41.9291 38.8819 42.8281 38.8819 47.9228C38.8819 51.9687 36.3054 54.516 32.8196 54.516C28.7275 54.516 26.6057 51.9687 26.6057 51.9687L27.6666 48.3724C27.6666 48.3724 29.7884 50.1705 31.6071 50.1705C32.8196 50.1705 33.2743 49.2715 33.2743 48.5222C33.2743 45.6752 28.576 45.5253 28.576 40.8802C28.576 36.9842 31.4556 33.2381 37.0632 33.2381C39.6397 33.0882 40.7006 33.8375 40.7006 33.8375Z" fill="white"/>
<path d="M53.1317 26.6434C52.9801 26.6434 49.7974 26.3437 49.7974 26.3437C49.7974 26.3437 47.5241 24.0961 47.2209 23.9462C47.0694 23.7964 47.0694 23.7964 46.9178 23.7964L45.0991 60.6582L58.1331 57.8111C58.1331 57.8111 53.5864 27.2428 53.5864 26.9431C53.5864 26.7933 53.2833 26.6434 53.1317 26.6434Z" fill="#729C21"/>
<rect x="1" y="1" width="78" height="78" rx="39" stroke="white" stroke-width="2"/>
</svg>
