<svg width="57" height="57" viewBox="0 0 57 57" fill="none" xmlns="http://www.w3.org/2000/svg">
<rect width="57" height="57" rx="16.2857" fill="white"/>
<g opacity="0.5" filter="url(#filter0_f_1261_7396)">
<path d="M37.5246 22.242C37.5012 22.1005 37.3862 21.992 37.2438 21.9785C37.1317 21.96 34.6696 21.7905 34.6696 21.7905L32.7924 19.9055C32.6232 19.7175 32.2487 19.7725 32.1073 19.8115C32.0889 19.8115 31.7329 19.924 31.1503 20.114C30.5842 18.469 29.5819 16.961 27.8163 16.961H27.6655C27.1596 16.3025 26.5402 16 26.0174 16C21.9066 16.0185 19.9478 21.1665 19.3284 23.797L16.4555 24.682C15.5742 24.964 15.5418 24.9845 15.4233 25.8285L13 44.5875L31.1578 48L40.998 45.87C40.998 45.8515 37.5425 22.4215 37.5246 22.2425V22.242ZM30.1436 20.43C29.687 20.5815 29.1662 20.7325 28.605 20.9025V20.5625C28.6216 19.7141 28.495 18.869 28.2306 18.063C29.1507 18.205 29.7691 19.2415 30.1441 20.4295L30.1436 20.43ZM27.1222 18.281C27.4225 19.17 27.5619 20.106 27.5335 21.0445V21.2145L24.3593 22.196C24.9807 19.866 26.1269 18.715 27.1227 18.281H27.1222ZM25.9024 17.1345C26.0901 17.1385 26.2727 17.1974 26.4277 17.304C25.1032 17.923 23.7031 19.487 23.1026 22.6175L20.5907 23.3905C21.2992 21.015 22.9522 17.13 25.9009 17.13L25.9024 17.1345Z" fill="#95BF47"/>
<path d="M37.2436 21.9786C37.1316 21.9601 34.6694 21.7906 34.6694 21.7906L32.7923 19.9056C32.7226 19.8346 32.628 19.7941 32.5299 19.7931L31.1597 48.0001L40.9999 45.8701L37.5245 22.2611C37.5132 22.1904 37.48 22.125 37.4295 22.0744C37.3791 22.0238 37.3141 21.9904 37.2436 21.9791V21.9786Z" fill="#5E8E3E"/>
<path d="M27.8167 27.445L26.5948 31.066C25.8564 30.707 25.0493 30.514 24.2287 30.4995C22.3128 30.4995 22.2192 31.7055 22.2192 32.0085C22.2192 33.6575 26.5191 34.2905 26.5191 38.175C26.5191 41.23 24.5847 43.19 21.9881 43.19C18.8712 43.19 17.2744 41.2475 17.2744 41.2475L18.1034 38.4725C18.1034 38.4725 19.7366 39.8875 21.1272 39.8875C21.2935 39.8938 21.4593 39.8663 21.6146 39.8064C21.7699 39.7466 21.9116 39.6557 22.0309 39.5393C22.1502 39.423 22.2448 39.2835 22.3089 39.1293C22.3731 38.9752 22.4054 38.8095 22.4039 38.6425C22.4039 36.4725 18.8737 36.379 18.8737 32.8335C18.8737 29.8525 21.0137 26.9485 25.3137 26.9485C27.0036 26.9735 27.8122 27.4435 27.8122 27.4435L27.8167 27.445Z" fill="white"/>
</g>
<path d="M38.5246 19.242C38.5012 19.1005 38.3862 18.992 38.2438 18.9785C38.1317 18.96 35.6696 18.7905 35.6696 18.7905L33.7924 16.9055C33.6232 16.7175 33.2487 16.7725 33.1073 16.8115C33.0889 16.8115 32.7329 16.924 32.1503 17.114C31.5842 15.469 30.5819 13.961 28.8163 13.961H28.6655C28.1596 13.3025 27.5402 13 27.0174 13C22.9066 13.0185 20.9478 18.1665 20.3284 20.797L17.4555 21.682C16.5742 21.964 16.5418 21.9845 16.4233 22.8285L14 41.5875L32.1578 45L41.998 42.87C41.998 42.8515 38.5425 19.4215 38.5246 19.2425V19.242ZM31.1436 17.43C30.687 17.5815 30.1662 17.7325 29.605 17.9025V17.5625C29.6216 16.7141 29.495 15.869 29.2306 15.063C30.1507 15.205 30.7691 16.2415 31.1441 17.4295L31.1436 17.43ZM28.1222 15.281C28.4225 16.17 28.5619 17.106 28.5335 18.0445V18.2145L25.3593 19.196C25.9807 16.866 27.1269 15.715 28.1227 15.281H28.1222ZM26.9024 14.1345C27.0901 14.1385 27.2727 14.1974 27.4277 14.304C26.1032 14.923 24.7031 16.487 24.1026 19.6175L21.5907 20.3905C22.2992 18.015 23.9522 14.13 26.9009 14.13L26.9024 14.1345Z" fill="#95BF47"/>
<path d="M38.2436 18.9786C38.1316 18.9601 35.6694 18.7906 35.6694 18.7906L33.7923 16.9056C33.7226 16.8346 33.628 16.7941 33.5299 16.7931L32.1597 45.0001L41.9999 42.8701L38.5245 19.2611C38.5132 19.1904 38.48 19.125 38.4295 19.0744C38.3791 19.0238 38.3141 18.9904 38.2436 18.9791V18.9786Z" fill="#5E8E3E"/>
<path d="M28.8167 24.445L27.5948 28.066C26.8564 27.707 26.0493 27.514 25.2287 27.4995C23.3128 27.4995 23.2192 28.7055 23.2192 29.0085C23.2192 30.6575 27.5191 31.2905 27.5191 35.175C27.5191 38.23 25.5847 40.19 22.9881 40.19C19.8712 40.19 18.2744 38.2475 18.2744 38.2475L19.1034 35.4725C19.1034 35.4725 20.7366 36.8875 22.1272 36.8875C22.2935 36.8938 22.4593 36.8663 22.6146 36.8064C22.7699 36.7466 22.9116 36.6557 23.0309 36.5393C23.1502 36.423 23.2448 36.2835 23.3089 36.1293C23.3731 35.9752 23.4054 35.8095 23.4039 35.6425C23.4039 33.4725 19.8737 33.379 19.8737 29.8335C19.8737 26.8525 22.0137 23.9485 26.3137 23.9485C28.0036 23.9735 28.8122 24.4435 28.8122 24.4435L28.8167 24.445Z" fill="white"/>
<defs>
<filter id="filter0_f_1261_7396" x="8" y="11" width="38" height="42.0001" filterUnits="userSpaceOnUse" color-interpolation-filters="sRGB">
<feFlood flood-opacity="0" result="BackgroundImageFix"/>
<feBlend mode="normal" in="SourceGraphic" in2="BackgroundImageFix" result="shape"/>
<feGaussianBlur stdDeviation="2.5" result="effect1_foregroundBlur_1261_7396"/>
</filter>
</defs>
</svg>
