<svg width="82" height="82" viewBox="0 0 82 82" fill="none" xmlns="http://www.w3.org/2000/svg">
<rect x="1" y="1" width="80" height="80" rx="40" fill="white" fill-opacity="0.5"/>
<path d="M41 28C35.6678 28 32.3324 30.7781 30.9988 36.3342C33.0005 33.5561 35.3338 32.5128 38.0011 33.2066C39.5211 33.6042 40.6079 34.754 41.8133 36.0278C43.7738 38.0993 46.0442 40.5 51.0012 40.5C56.3334 40.5 59.6663 37.7219 61 32.1658C59.0007 34.9439 56.6674 35.9847 54.0001 35.2908C52.4801 34.8958 51.3909 33.7435 50.1879 32.4722C48.2274 30.3982 45.957 28 41 28ZM30.9988 40.5C25.6666 40.5 22.3337 43.2781 21 48.8342C22.9993 46.0561 25.3326 45.0153 27.9999 45.7092C29.5223 46.1042 30.6091 47.2565 31.8121 48.5278C33.7726 50.6018 36.043 53 41 53C46.3346 53 49.6676 50.2219 51.0012 44.6658C48.9995 47.4439 46.6662 48.4872 44.0013 47.7934C42.4789 47.3958 41.3921 46.246 40.1867 44.9722C38.2262 42.9007 35.9558 40.5 30.9988 40.5Z" fill="#06B6D4"/>
<rect x="1" y="1" width="80" height="80" rx="40" stroke="white" stroke-width="2"/>
</svg>
