<svg width="57" height="57" viewBox="0 0 57 57" fill="none" xmlns="http://www.w3.org/2000/svg">
<rect width="57" height="57" rx="16.2857" fill="white"/>
<g clip-path="url(#clip0_1261_7631)" filter="url(#filter0_f_1261_7631)">
<path d="M28.9999 18.3329C23.6685 18.3329 20.3366 20.9255 19.0036 26.1103C21.0031 23.5177 23.3355 22.5458 26.001 23.1937C27.5219 23.5634 28.6089 24.637 29.8124 25.8248C31.7723 27.7598 34.0408 29.9993 38.9962 29.9993C44.3271 29.9993 47.6595 27.4067 48.992 22.2214C46.993 24.814 44.6606 25.7864 41.9946 25.1385C40.4742 24.7688 39.3872 23.6952 38.1837 22.5074C36.2237 20.5724 33.9548 18.3329 28.9999 18.3329ZM19.0036 29.9993C13.6727 29.9993 10.3403 32.592 9.00781 37.7772C11.0068 35.1846 13.3392 34.2122 16.0052 34.8606C17.5256 35.2308 18.6126 36.3039 19.8161 37.4912C21.776 39.4262 24.045 41.6662 28.9999 41.6662C34.3313 41.6662 37.6632 39.0736 38.9962 33.8883C36.9967 36.4809 34.6643 37.4533 31.9988 36.8049C30.4779 36.4357 29.3909 35.3617 28.1874 34.1743C26.2275 32.2393 23.959 29.9993 19.0036 29.9993Z" fill="#06B6D4" fill-opacity="0.3"/>
</g>
<g clip-path="url(#clip1_1261_7631)">
<path d="M28.9999 14.9999C23.6685 14.9999 20.3366 17.5925 19.0036 22.7773C21.0031 20.1847 23.3355 19.2128 26.001 19.8607C27.5219 20.2304 28.6089 21.3039 29.8124 22.4918C31.7723 24.4268 34.0408 26.6663 38.9962 26.6663C44.3271 26.6663 47.6595 24.0737 48.992 18.8884C46.993 21.481 44.6606 22.4534 41.9946 21.8055C40.4742 21.4358 39.3872 20.3622 38.1837 19.1744C36.2237 17.2394 33.9548 14.9999 28.9999 14.9999ZM19.0036 26.6663C13.6727 26.6663 10.3403 29.2589 9.00781 34.4442C11.0068 31.8516 13.3392 30.8792 16.0052 31.5276C17.5256 31.8978 18.6126 32.9709 19.8161 34.1582C21.776 36.0932 24.045 38.3332 28.9999 38.3332C34.3313 38.3332 37.6632 35.7406 38.9962 30.5553C36.9967 33.1479 34.6643 34.1203 31.9988 33.4719C30.4779 33.1027 29.3909 32.0287 28.1874 30.8413C26.2275 28.9063 23.959 26.6663 19.0036 26.6663Z" fill="#06B6D4"/>
</g>
<defs>
<filter id="filter0_f_1261_7631" x="6" y="15.3329" width="46" height="29.3334" filterUnits="userSpaceOnUse" color-interpolation-filters="sRGB">
<feFlood flood-opacity="0" result="BackgroundImageFix"/>
<feBlend mode="normal" in="SourceGraphic" in2="BackgroundImageFix" result="shape"/>
<feGaussianBlur stdDeviation="1.5" result="effect1_foregroundBlur_1261_7631"/>
</filter>
<clipPath id="clip0_1261_7631">
<rect width="40" height="23.3333" fill="white" transform="translate(9 18.3329)"/>
</clipPath>
<clipPath id="clip1_1261_7631">
<rect width="40" height="23.3333" fill="white" transform="translate(9 14.9999)"/>
</clipPath>
</defs>
</svg>
