<svg width="60" height="60" viewBox="0 0 60 60" fill="none" xmlns="http://www.w3.org/2000/svg">
<rect width="60" height="60" rx="30" fill="#F5F9ED"/>
<path d="M21.5825 39.7373L23.6456 36.4482M29.835 26.5807L41.3883 45M29.835 26.5807L23.6456 36.4482M29.835 26.5807V22.3047M41.3883 45H47L38.7476 31.8433L37.0971 34.4747M41.3883 45H18.2816M18.2816 45L20.2621 41.7108M18.2816 45H13L20.9223 32.1723L23.6456 36.4482M29.835 22.3047V16.3843C30.6052 16.7132 32.7398 17.0421 35.1165 15.7264C37.4932 14.4108 38.9676 15.1783 39.4078 15.7264V21.6469C38.9676 21.0987 37.4932 20.3312 35.1165 21.6469C32.7398 22.9626 30.6052 22.6337 29.835 22.3047Z" stroke="#96BF47" stroke-width="1.44062" stroke-linecap="round" stroke-linejoin="round"/>
</svg>
