<svg width="82" height="82" viewBox="0 0 82 82" fill="none" xmlns="http://www.w3.org/2000/svg">
<rect x="1" y="1" width="80" height="80" rx="40" fill="white" fill-opacity="0.5"/>
<path d="M27.2743 40.9996C27.2743 46.4325 30.4315 51.1275 35.0097 53.3527L28.4626 35.4137C27.7009 37.1207 27.2743 39.0099 27.2743 40.9996ZM50.2653 40.307C50.2653 38.6106 49.656 37.4358 49.1333 36.5215C48.4376 35.3907 47.7854 34.4333 47.7854 33.3027C47.7854 32.041 48.7424 30.8666 50.0901 30.8666C50.1509 30.8666 50.2087 30.8742 50.2679 30.8774C47.826 28.6405 44.5727 27.2743 40.9994 27.2743C36.2043 27.2743 31.9856 29.7345 29.5316 33.4612C29.8535 33.4709 30.1572 33.4775 30.4148 33.4775C31.8505 33.4775 34.0729 33.3034 34.0729 33.3034C34.8127 33.2598 34.9 34.3466 34.1609 34.4342C34.1609 34.4342 33.4174 34.5216 32.59 34.5651L37.5883 49.432L40.592 40.4236L38.4536 34.5642C37.7144 34.5208 37.0142 34.4333 37.0142 34.4333C36.2745 34.3899 36.3612 33.2591 37.1009 33.3025C37.1009 33.3025 39.3677 33.4767 40.7163 33.4767C42.1517 33.4767 44.3743 33.3025 44.3743 33.3025C45.1147 33.2589 45.2017 34.3456 44.4623 34.4333C44.4623 34.4333 43.7172 34.5208 42.8914 34.5642L47.8515 49.319L49.2205 44.7442C49.8137 42.8456 50.2653 41.4821 50.2653 40.307ZM41.2405 42.2003L37.1224 54.1671C38.352 54.5285 39.6523 54.7264 40.9997 54.7264C42.598 54.7264 44.1307 54.45 45.5575 53.948C45.5207 53.8894 45.4872 53.8272 45.4598 53.759L41.2405 42.2003ZM53.043 34.4143C53.1021 34.8516 53.1355 35.3211 53.1355 35.8258C53.1355 37.2186 52.8753 38.7845 52.0919 40.7422L47.8995 52.864C51.9799 50.4844 54.7245 46.0635 54.7245 40.9997C54.7248 38.6134 54.1151 36.3694 53.043 34.4143ZM40.9997 25C32.1777 25 25 32.1776 25 40.9996C25 49.8228 32.1777 57 40.9997 57C49.8213 57 57 49.8227 57 40.9996C56.9997 32.1776 49.8213 25 40.9997 25ZM40.9997 56.2663C32.5822 56.2663 25.7336 49.4175 25.7336 40.9994C25.7336 32.5817 32.5821 25.7338 40.9997 25.7338C49.4168 25.7338 56.2648 32.582 56.2648 40.9994C56.2647 49.4177 49.4168 56.2663 40.9997 56.2663Z" fill="#2BA7D9"/>
<rect x="1" y="1" width="80" height="80" rx="40" stroke="white" stroke-width="2"/>
</svg>
